<svg width="80" height="80" viewBox="0 0 80 80" fill="none" xmlns="http://www.w3.org/2000/svg">
<path d="M77.707 2.70703L78.4141 3.41414L79.1212 2.70703L78.4141 1.99992L77.707 2.70703ZM40.5605 39.8535L39.8534 39.1464L39.1463 39.8535L39.8534 40.5606L40.5605 39.8535ZM77.707 77L78.4141 77.7071L79.1212 77L78.4141 76.2929L77.707 77ZM77 77.707L76.2929 78.4141L77 79.1212L77.7071 78.4141L77 77.707ZM39.8535 40.5605L40.5606 39.8534L39.8535 39.1463L39.1464 39.8534L39.8535 40.5605ZM2.70703 77.707L1.99992 78.4141L2.70703 79.1212L3.41414 78.4141L2.70703 77.707ZM2 77L1.29289 76.2929L0.585786 77L1.29289 77.7071L2 77ZM39.1465 39.8535L39.8536 40.5606L40.5607 39.8535L39.8536 39.1464L39.1465 39.8535ZM2 2.70703L1.29289 1.99992L0.585786 2.70703L1.29289 3.41414L2 2.70703ZM2.70703 2L3.41414 1.29289L2.70703 0.585786L1.99992 1.29289L2.70703 2ZM39.8535 39.1465L39.1464 39.8536L39.8535 40.5607L40.5606 39.8536L39.8535 39.1465ZM77 2L77.7071 1.29289L77 0.585786L76.2929 1.29289L77 2ZM77.707 2.70703L76.9999 1.99992L39.8534 39.1464L40.5605 39.8535L41.2677 40.5606L78.4141 3.41414L77.707 2.70703ZM40.5605 39.8535L39.8534 40.5606L76.9999 77.7071L77.707 77L78.4141 76.2929L41.2677 39.1464L40.5605 39.8535ZM77.707 77L76.9999 76.2929L76.2929 76.9999L77 77.707L77.7071 78.4141L78.4141 77.7071L77.707 77ZM77 77.707L77.7071 76.9999L40.5606 39.8534L39.8535 40.5605L39.1464 41.2677L76.2929 78.4141L77 77.707ZM39.8535 40.5605L39.1464 39.8534L1.99992 76.9999L2.70703 77.707L3.41414 78.4141L40.5606 41.2677L39.8535 40.5605ZM2.70703 77.707L3.41414 76.9999L2.70711 76.2929L2 77L1.29289 77.7071L1.99992 78.4141L2.70703 77.707ZM2 77L2.70711 77.7071L39.8536 40.5606L39.1465 39.8535L38.4394 39.1464L1.29289 76.2929L2 77ZM39.1465 39.8535L39.8536 39.1464L2.70711 1.99992L2 2.70703L1.29289 3.41414L38.4394 40.5606L39.1465 39.8535ZM2 2.70703L2.70711 3.41414L3.41414 2.70711L2.70703 2L1.99992 1.29289L1.29289 1.99992L2 2.70703ZM2.70703 2L1.99992 2.70711L39.1464 39.8536L39.8535 39.1465L40.5606 38.4394L3.41414 1.29289L2.70703 2ZM39.8535 39.1465L40.5606 39.8536L77.7071 2.70711L77 2L76.2929 1.29289L39.1464 38.4394L39.8535 39.1465ZM77 2L76.2929 2.70711L76.9999 3.41414L77.707 2.70703L78.4141 1.99992L77.7071 1.29289L77 2Z" fill="#707070"/>
</svg>
